<?xml version="1.0" encoding="UTF-8" standalone="no"?>
<!-- Created with Inkscape (http://www.inkscape.org/) -->

<svg
   xmlns:dc="http://purl.org/dc/elements/1.1/"
   xmlns:cc="http://creativecommons.org/ns#"
   xmlns:rdf="http://www.w3.org/1999/02/22-rdf-syntax-ns#"
   xmlns:svg="http://www.w3.org/2000/svg"
   xmlns="http://www.w3.org/2000/svg"
   xmlns:sodipodi="http://sodipodi.sourceforge.net/DTD/sodipodi-0.dtd"
   xmlns:inkscape="http://www.inkscape.org/namespaces/inkscape"
   width="251.74001"
   height="230"
   id="svg2"
   version="1.1"
   inkscape:version="0.48.2 r9819"
   sodipodi:docname="New document 1">
  <defs
     id="defs4">
    <clipPath
       id="clipPath3020"
       clipPathUnits="userSpaceOnUse">
      <path
         id="path3022"
         d="M 0,315 315,315 315,0 0,0 0,315 z"
         inkscape:connector-curvature="0" />
    </clipPath>
  </defs>
  <sodipodi:namedview
     id="base"
     pagecolor="#ffffff"
     bordercolor="#666666"
     borderopacity="1.0"
     inkscape:pageopacity="0.0"
     inkscape:pageshadow="2"
     inkscape:zoom="1.979899"
     inkscape:cx="61.644996"
     inkscape:cy="116.83935"
     inkscape:document-units="px"
     inkscape:current-layer="layer1"
     showgrid="false"
     inkscape:window-width="1094"
     inkscape:window-height="864"
     inkscape:window-x="43"
     inkscape:window-y="0"
     inkscape:window-maximized="0" />
  <metadata
     id="metadata7">
    <rdf:RDF>
      <cc:Work
         rdf:about="">
        <dc:format>image/svg+xml</dc:format>
        <dc:type
           rdf:resource="http://purl.org/dc/dcmitype/StillImage" />
        <dc:title></dc:title>
      </cc:Work>
    </rdf:RDF>
  </metadata>
  <g
     inkscape:label="Layer 1"
     inkscape:groupmode="layer"
     id="layer1"
     transform="translate(0,-822.36218)">
    <g
       transform="matrix(1.25,0,0,-1.25,-71.51332,1124.8684)"
       inkscape:label="seov3"
       id="g3012">
      <path
         id="path3014"
         style="fill:#000000;fill-opacity:1;fill-rule:nonzero;stroke:none"
         d="m 258.194,241.312 -201.389,0 0,-183.333 201.389,0 0,183.333 z"
         inkscape:connector-curvature="0" />
      <g
         id="g3016">
        <g
           clip-path="url(#clipPath3020)"
           id="g3018">
          <g
             transform="translate(191.0312,127.4199)"
             id="g3024">
            <path
               id="path3026"
               style="fill:#ffffff;fill-opacity:1;fill-rule:nonzero;stroke:none"
               d="m 0,0 0.027,-0.025 0,8.775 14.914,0 0.012,-0.01 0,8.762 14.912,0 0.028,-0.025 0,8.777 20.513,0 c -6.363,7.629 -15.941,12.484 -26.65,12.484 -19.16,0 -34.692,-15.533 -34.692,-34.691 0,-1.369 0.081,-2.719 0.235,-4.047"
               inkscape:connector-curvature="0" />
          </g>
          <g
             transform="translate(238.543,136.1406)"
             id="g3028">
            <path
               id="path3030"
               style="fill:#ffffff;fill-opacity:1;fill-rule:nonzero;stroke:none"
               d="m 0,0 -16.705,16.855 0,-9.009 16.678,-16.598 -14.914,0 -16.704,16.856 0,-8.995 16.692,-16.611 -14.912,0 -16.705,16.854 0,-9.008 16.675,-16.6 -21.023,0 c 6.355,-7.99 16.16,-13.109 27.162,-13.109 19.158,0 34.694,15.531 34.694,34.691 0,1.584 -0.112,3.145 -0.317,4.674"
               inkscape:connector-curvature="0" />
          </g>
          <g
             transform="translate(106.7266,137.1445)"
             id="g3032">
            <path
               id="path3034"
               style="fill:#ffffff;fill-opacity:1;fill-rule:nonzero;stroke:none"
               d="m 0,0 c -16.687,4.406 -20.869,5.473 -20.869,10.74 0,5.748 5.889,7.873 10.853,7.873 4.09,0 7.996,-0.758 10.625,-3.039 0.057,-0.049 0.057,-0.049 0.202,-0.17 C 1.855,14.359 2.123,13.375 2.742,12.143 4.061,9.371 6.52,8.012 9.561,8.012 l 7.951,0 c 0,2.662 -0.53,5.152 -1.268,7.48 -0.043,0.11 -0.037,0.086 -0.053,0.133 -3.39,10.342 -12.722,14.562 -25.328,14.562 -12.025,0 -25.677,-4.687 -25.677,-20.691 0,-15.363 10.761,-17.158 20.644,-19.842 9.789,-2.681 19.762,-3.533 19.762,-10.91 0,-6.994 -7.83,-8.525 -12.955,-8.525 -4.979,0 -9.58,1.115 -12.272,4.261 -0.002,0.004 -0.004,0.006 -0.008,0.01 -0.904,1.305 -1.386,2.162 -2.048,3.481 -1.317,2.769 -3.692,4.158 -6.733,4.158 l -7.922,0 c 0,-2.715 0.293,-5.281 1.051,-7.649 3.305,-11.296 14.602,-15.919 27.371,-15.949 19.862,-0.045 27.686,9.389 27.686,21.938 C 19.762,-4.014 4.848,-1.244 0,0"
               inkscape:connector-curvature="0" />
          </g>
          <g
             transform="translate(145.6504,109.8887)"
             id="g3036">
            <path
               id="path3038"
               style="fill:#ffffff;fill-opacity:1;fill-rule:nonzero;stroke:none"
               d="m 0,0 0,17.43 19.412,0 c 1.979,0 3.662,0.691 5.047,2.078 1.389,1.387 2.08,3.07 2.08,5.051 l 0,4.554 -26.539,0 0,14.658 24.246,0 4.209,0 c 1.981,0 3.664,0.692 5.051,2.081 1.385,1.384 2.078,3.07 2.078,5.05 l 0,4.553 -49.449,0 0,-68.133 49.515,0 0,12.678"
               inkscape:connector-curvature="0" />
          </g>
        </g>
      </g>
      <text
         id="text3040"
         transform="matrix(1,0,0,-1,72.1323,66.5635)">
        <tspan
           id="tspan3042"
           sodipodi:role="line"
           y="0"
           x="0 27.356001 50.119999 77.028 102.676 132.104 159.51601"
           style="font-size:28px;font-variant:normal;font-weight:normal;font-stretch:normal;writing-mode:lr-tb;fill:#ffffff;fill-opacity:1;fill-rule:nonzero;stroke:none;font-family:UTM Cafeta;-inkscape-font-specification:UTM-Cafeta">VIETNAM</tspan>
      </text>
    </g>
  </g>
</svg>
